<?xml version="1.0" encoding="UTF-8" standalone="no"?>
<!-- Creator: CorelDRAW X8 -->

<svg
   xml:space="preserve"
   width="512px"
   height="512px"
   version="1.1"
   style="shape-rendering:geometricPrecision; text-rendering:geometricPrecision; image-rendering:optimizeQuality; fill-rule:evenodd; clip-rule:evenodd"
   viewBox="0 0 512 512"
   id="svg4018"
   sodipodi:docname="Club_Icon.svg"
   inkscape:version="1.2.2 (b0a8486541, 2022-12-01)"
   xmlns:inkscape="http://www.inkscape.org/namespaces/inkscape"
   xmlns:sodipodi="http://sodipodi.sourceforge.net/DTD/sodipodi-0.dtd"
   xmlns="http://www.w3.org/2000/svg"
   xmlns:svg="http://www.w3.org/2000/svg"><sodipodi:namedview
   id="namedview4020"
   pagecolor="#ffffff"
   bordercolor="#000000"
   borderopacity="0.25"
   inkscape:showpageshadow="2"
   inkscape:pageopacity="0.0"
   inkscape:pagecheckerboard="0"
   inkscape:deskcolor="#d1d1d1"
   showgrid="false"
   inkscape:zoom="0.57797693"
   inkscape:cx="-260.39102"
   inkscape:cy="321.81215"
   inkscape:window-width="1920"
   inkscape:window-height="1017"
   inkscape:window-x="-8"
   inkscape:window-y="-8"
   inkscape:window-maximized="1"
   inkscape:current-layer="Layer_x0020_1" />
 <defs
   id="defs4003">
  <style
   type="text/css"
   id="style4001">
   <![CDATA[
    .fil0 {fill:none}
    .fil1 {fill:#009790}
    .fil2 {fill:#2B3B3C}
   ]]>
  </style>
 </defs>
 <g
   id="Layer_x0020_1"
   inkscape:label="Layer 1">
  <metadata
   id="CorelCorpID_0Corel-Layer" />
  <path
   class="fil0"
   d="M-19 1289l274 271 276 -274 -274 -273 -122 118c-28,35 -138,133 -154,158z"
   id="path4006" />
  <polygon
   class="fil1"
   points="258,1288 258,1284 254,1288 "
   id="polygon4008" />
  <g
   id="_1980575539616"
   transform="matrix(0.953125,0,0,0.953125,12,12)">
   <path
   class="fil2"
   d="M 168,285.99967 192,311.759 244,275 h -31 c 15,-25 29,-51 43,-76 14,25 28,51 43,76 H 268 L 320,311.75833 344,286 C 315,235 285,183 256,132 227,183 197,234.99967 168,285.99967 Z M 102,98 h 1 -1 c 54,0 109,-24 154,-60 46,36 100,60 154,60 v 0 0 191 c -14,51 -43,93 -95,127 -2,1 -3,1 -4,0 -15,-13 -29,-28 -43,-42 v -1 0 1 c 6,5 11,10 17,15 l 20,17 5,4 c 1,1 3,2 4,2 1,0 2,0 4,-1 47,-32 75,-75 89,-122 V 102 C 346,101 294,71 256,43 218,71 166,101 105,102 v 187 c 14,47 42,90 90,122 1,1 2,1 3,1 1,0 3,-1 4,-2 l 5,-4 20,-17 c 6,-5 11,-10 17,-15 v -1 0 1 c -14,14 -28,29 -43,42 -1,1 -2,1 -4,0 -51,-34 -81,-76 -95,-127 z M 424,84 v 201 c -10,40 -31,74 -61,103 -14,12 -29,23 -46,33 v 1 l 1,1 c 0,0 4,-1 6,-2 2,-1 4,-3 5,-3 25,-15 45,-32 61,-52 19,-23 32,-50 39,-81 V 79 C 365,76 308,50 256,0 204,50 147,76 83,79 v 206 c 7,31 20,58 39,81 16,20 36,37 61,52 1,0 3,2 5,3 l 6,2 1,-1 v -1 C 178,411 163,400 149,388 119,359 98,325 89,285 V 84 84 C 150,81 213,50 256,12 299,50 362,81 423,84 Z M 67,169 c 0,5 -1,11 -3,15 -1,4 -4,11 -7,12 v 0 0 0 c -4,-4 -14,-20 -7,-30 1,-2 3,-4 5,-6 3,-5 5,-11 5,-19 0,1 1,1 1,1 v 0 c 0,1 0,2 1,2 1,4 2,8 3,10 1,4 2,11 2,15 z m 100,343 c 3,-1 3,-1 5,-4 l 8,-6 c 8,-5 14,-6 26,-6 9,0 15,-3 20,-8 6,-5 7,-9 11,-16 l -19,-18 c -2,2 -5,2 -8,4 -15,8 -26,21 -34,36 -2,4 -8,14 -9,18 z M 36,205 c -1,4 -3,4 -1,10 1,3 3,7 5,9 3,3 13,8 18,9 v 0 0 c 0,-11 -2,-22 -9,-30 -4,-5 -9,-10 -15,-14 -1,-1 -3,-2 -5,-3 v 0 0 c 6,11 7,16 7,19 z M 1,267 v 0 0 2 c 6,0 13,4 17,6 8,6 8,25 39,15 2,-1 6,-3 8,-3 v 0 -1 c -3,-5 -10,-10 -18,-14 -7,-4 -13,-6 -20,-6 -11,-1 -16,1 -26,1 z m 1,49 H 3 2 c 9,0 18,1 23,4 10,5 14,18 33,9 6,-2 13,-6 18,-10 1,-1 1,-1 2,-1 0,-1 0,-1 -1,-1 1,0 1,-1 1,-1 h -2 c -4,-3 -9,-5 -13,-6 v -1 c -12,-4 -29,-8 -58,6 -1,0 -2,0 -3,1 z m 91,32 h 1 -2 c -5,-3 -11,-4 -17,-5 -8,-2 -16,-2 -28,1 -9,2 -33,13 -37,19 4,0 10,-2 19,-2 15,0 22,17 41,7 7,-3 22,-15 23,-20 z m -11,59 c 6,0 13,-2 18,-6 l 8,-8 c 4,-4 7,-9 9,-13 1,0 1,-1 1,-2 h -2 c -3,-1 -6,-1 -9,-2 -3,0 -7,-1 -15,-1 -18,0 -37,11 -51,22 -2,2 -7,6 -8,8 7,-1 13,-4 22,-4 12,0 16,6 24,6 z m -22,44 c 3,-2 11,-5 14,-6 23,-8 22,1 38,1 9,0 20,-7 24,-13 6,-8 7,-9 11,-17 1,-2 2,-4 4,-7 h -22 c -14,0 -30,6 -40,14 -9,6 -7,5 -12,9 -1,2 -2,2 -4,4 -2,2 -4,4 -6,7 -2,2 -6,4 -7,8 z m 53,37 15,-9 c 9,-4 15,-3 28,-3 4,0 11,-4 14,-6 5,-4 8,-8 11,-14 l 2,-6 c 3,-6 6,-15 6,-19 l 1,-1 h -1 v 0 c -2,-1 -30,6 -40,12 -11,8 -18,14 -27,27 -3,4 -8,12 -11,18 -1,1 -1,2 -2,4 2,-1 3,-2 4,-3 z M 59,256 c -15,0 -26,6 -33,-12 -3,-6 -7,-10 -13,-13 -3,-1 -2,0 -3,-2 13,3 26,0 41,16 2,1 3,3 4,5 2,2 3,3 4,6 z m 386,-87 c 0,5 1,11 3,15 1,4 4,10 7,12 v 0 0 0 c 4,-4 14,-20 7,-30 -1,-2 -3,-4 -5,-6 -3,-5 -5,-11 -5,-19 l -1,1 v 0 c 0,1 0,1 -1,2 -1,3 -2,8 -3,10 -1,4 -2,11 -2,15 z M 345,512 c -3,-1 -3,-2 -5,-4 l -8,-6 c -8,-5 -14,-7 -26,-7 -9,0 -15,-3 -20,-7 -6,-5 -7,-9 -11,-16 l 19,-18 c 2,2 5,2 8,4 15,8 26,21 34,36 2,4 8,14 9,18 z M 476,205 c 1,3 3,4 1,10 -1,3 -3,7 -5,9 -3,3 -13,8 -18,9 v 0 0 c 0,-11 2,-22 9,-30 4,-5 9,-10 15,-14 1,-1 3,-3 5,-3 v 0 0 c -6,11 -7,16 -7,19 z m 35,62 v 0 0 1 c -6,1 -13,4 -17,7 -8,6 -8,25 -39,14 -2,0 -6,-2 -8,-3 v 0 0 c 3,-5 10,-11 18,-14 7,-4 13,-6 20,-6 11,-1 16,1 26,1 z m -1,49 h -1 1 c -9,0 -18,1 -23,4 -10,5 -14,17 -33,9 -6,-2 -13,-7 -18,-11 h -2 c 0,-1 0,-1 1,-1 l -1,-1 c 1,0 2,0 2,-1 4,-2 9,-4 13,-6 v 0 c 12,-4 29,-8 58,6 1,0 2,0 3,1 z m -91,32 h -1 c 1,0 1,0 2,-1 5,-2 11,-3 17,-4 8,-2 16,-3 28,1 9,2 33,13 37,18 -4,0 -10,-1 -19,-1 -15,0 -22,17 -41,7 -7,-3 -22,-15 -23,-20 z m 11,59 c -6,0 -13,-2 -18,-7 -4,-3 -4,-3 -8,-7 -4,-5 -7,-9 -9,-13 -1,0 -1,-1 -1,-2 h 2 c 3,-1 6,-1 9,-2 3,0 7,-1 15,-1 18,0 37,10 51,22 2,2 7,5 8,8 -7,-2 -13,-4 -22,-4 -12,0 -16,6 -24,6 z m 22,43 c -3,-1 -11,-4 -14,-5 -23,-8 -22,1 -38,1 -9,0 -20,-7 -24,-13 -6,-8 -7,-9 -11,-17 -1,-3 -2,-4 -4,-7 l 22,-1 c 14,0 30,7 40,15 9,6 7,5 12,9 1,2 2,2 4,3 2,3 4,5 6,8 2,2 6,4 7,7 z m -53,38 c -5,-3 -10,-7 -15,-9 -9,-5 -15,-3 -28,-3 -4,0 -11,-4 -14,-6 -5,-4 -8,-8 -11,-14 l -2,-6 c -3,-7 -6,-16 -6,-19 l -1,-1 h 1 v 0 c 2,-2 30,5 40,12 11,7 18,14 27,26 3,5 8,13 11,18 1,2 1,3 2,5 -2,-1 -3,-2 -4,-3 z m 54,-232 c 15,0 26,6 33,-12 3,-7 7,-10 13,-13 3,-1 2,0 3,-2 -13,3 -26,0 -41,15 -2,2 -3,4 -4,6 -2,2 -3,3 -4,6 z"
   id="path4010"
   style="fill:#f2f3f4;fill-opacity:1"
   sodipodi:nodetypes="cccccccccccccccsccccccccccccscccccccscccccccccccccccccsccccccccccccccccscccscsccsccccsccscccscccccccssscsccscscscccccsccccsccccccccccccccccccccsccscsccccsccsssccscscsccsccccsccccccsccccccccccccscsccsccccsccscccscccccccssscsccscscscccscscsccsccccccccccssccccccccsccsccccccsccsssccscccccccccccsccccccscccccccccscc" />
   <path
   class="fil2"
   d="m 256,474 47,-47 -47,-48 -47,48 z m 0,-6 41,-41 -41,-41 -41,41 z"
   id="path4012"
   style="fill:#f2f3f4;fill-opacity:1" />
   <path
   id="rect4014"
   class="fil2"
   transform="matrix(0.0766307,-0.0766307,0.0766307,0.0766307,230.621,426.757)"
   d="M 0,0 H 332 V 332 H 0 Z"
   style="fill:#f2f3f4;fill-opacity:1" />
  </g>
 </g>
</svg>
