<?xml version="1.0" encoding="UTF-8" standalone="no"?>
<svg
   id="draw_on_this_one"
   data-name="draw on this one"
   viewBox="0 0 512 512"
   version="1.1"
   sodipodi:docname="Kills_Icon.svg"
   width="512"
   height="512"
   inkscape:version="1.2.2 (b0a8486541, 2022-12-01)"
   xmlns:inkscape="http://www.inkscape.org/namespaces/inkscape"
   xmlns:sodipodi="http://sodipodi.sourceforge.net/DTD/sodipodi-0.dtd"
   xmlns="http://www.w3.org/2000/svg"
   xmlns:svg="http://www.w3.org/2000/svg"
   xmlns:rdf="http://www.w3.org/1999/02/22-rdf-syntax-ns#"
   xmlns:cc="http://creativecommons.org/ns#"
   xmlns:dc="http://purl.org/dc/elements/1.1/">
  <metadata
     id="metadata77">
    <rdf:RDF>
      <cc:Work
         rdf:about="">
        <dc:format>image/svg+xml</dc:format>
        <dc:type
           rdf:resource="http://purl.org/dc/dcmitype/StillImage" />
        <dc:title>Skullpiercer Rifling</dc:title>
      </cc:Work>
    </rdf:RDF>
  </metadata>
  <sodipodi:namedview
     pagecolor="#ffffff"
     bordercolor="#666666"
     borderopacity="1"
     objecttolerance="10"
     gridtolerance="10"
     guidetolerance="10"
     inkscape:pageopacity="0"
     inkscape:pageshadow="2"
     inkscape:window-width="1920"
     inkscape:window-height="1017"
     id="namedview75"
     showgrid="false"
     inkscape:zoom="0.25"
     inkscape:cx="-762"
     inkscape:cy="484"
     inkscape:window-x="-8"
     inkscape:window-y="-8"
     inkscape:window-maximized="1"
     inkscape:current-layer="draw_on_this_one"
     inkscape:pagecheckerboard="0"
     inkscape:showpageshadow="2"
     inkscape:deskcolor="#d1d1d1" />
  <defs
     id="defs4">
    <style
       id="style2">.cls-1{fill:#241c1c;}</style>
  </defs>
  <title
     id="title6">Skullpiercer Rifling</title>
  <g
     id="g4055"
     transform="matrix(1.4423393,0,0,1.4423393,-120.14659,-106.21548)"
     style="fill:#f2f3f4;fill-opacity:1">
    <path
       class="cls-1"
       d="m 391.32618,254.71016 v 0.12286 c 5.55193,-12.3197 7.89971,-25.84289 6.82518,-39.31301 C 388.33676,75.603915 260.78788,82.005935 260.78788,82.005935 c 0,0 -127.54887,-6.40202 -137.36347,133.514075 -1.0668,13.46977 1.28064,26.99104 6.82518,39.31301 v -0.12286 c 1.01223,2.53378 1.89607,5.11697 2.64817,7.73975 12.28531,-22.59133 23.20559,-40.74629 23.20559,-40.74629 -3.13533,17.3263 -10.55942,33.59168 -21.59485,47.31211 0.57268,3.03857 0.87418,6.12203 0.90092,9.21399 0,13.00878 -8.95463,15.35664 -8.95463,30.03077 0,14.67412 32.63799,52.6767 38.60319,52.6767 5.9652,0 9.17304,-5.32364 13.00878,-5.32364 10.68064,5.17766 18.22247,15.1725 20.27077,26.86389 0,0 0.20476,1.02378 0.54602,2.42976 l 0.38221,0.87362 c 0.88591,-0.27109 1.80404,-0.42261 2.73007,-0.45046 3.7377,-0.24502 7.29343,1.64116 9.18668,4.87318 1.90047,-0.60949 3.88772,-0.90461 5.8833,-0.87362 h 3.03038 c 2.28289,0.0819 4.41027,1.17761 5.8014,2.98942 1.18403,-0.72429 2.54336,-1.11141 3.9313,-1.11933 4.83528,0.55093 9.16622,3.24771 11.7939,7.34389 1.72743,-3.20625 4.87222,-5.40406 8.47687,-5.92425 v 0 c 6.08489,0.63133 11.27194,4.68874 13.35004,10.44252 2.14638,-5.15342 7.02868,-8.64455 12.59928,-9.00923 3.9809,0.0491 7.73736,1.85195 10.26506,4.92777 2.12302,-3.69894 5.95498,-6.09134 10.21046,-6.37471 3.28145,-0.10784 6.54571,0.5168 9.55525,1.82915 3.14228,-4.0676 7.965,-6.48399 13.10433,-6.56582 1.27836,0.0328 2.53125,0.36487 3.6583,0.96917 0.26413,-2.11908 0.39176,-4.25291 0.38221,-6.38836 2.04964,-11.68676 9.58466,-21.6793 20.25712,-26.86389 3.84939,0 7.04358,5.32364 13.02243,5.32364 5.97885,0 38.60319,-37.96163 38.60319,-52.6767 0,-14.71508 -8.96828,-17.06294 -8.96828,-30.03077 0.29498,-8.07991 2.05242,-16.03938 5.18713,-23.49226 z m -200.9195,70.69517 c -7.46674,0 -40.95105,0.20475 -40.95105,-31.13645 0,-31.34121 43.33986,-42.13863 53.60492,-42.13863 9.80096,0 40.02283,1.81549 40.02283,32.32403 0,30.50853 -45.20996,40.95105 -52.6767,40.95105 z m 84.75502,50.9704 c -5.62394,0 -12.44912,-15.5614 -14.37382,-15.5614 0,0 -8.95462,13.00879 -15.35664,13.00879 -6.40201,0 -9.55524,-12.16246 -9.55524,-14.71508 0,-2.55262 14.29191,-59.29712 23.20559,-59.29712 8.91368,0 25.4033,60.14344 25.4033,64.62076 0,4.47731 -3.68559,11.9031 -9.32319,11.9031 z m 62.06814,-50.9704 c -7.46674,0 -52.69035,-10.44252 -52.69035,-40.95105 0,-30.50854 30.22188,-32.31038 40.03648,-32.31038 10.26506,0 53.60492,10.77012 53.60492,42.12498 0,31.35485 -33.55256,31.13645 -40.95105,31.13645 z m 40.44599,-81.13768 c -15.90266,0 -17.34959,-48.97746 -17.34959,-48.97746 0,20.06601 11.88945,35.1633 19.11049,35.1633 7.22103,0 14.08716,13.7732 -1.8155,13.7732 z"
       id="path70-2"
       style="fill:#f2f3f4;fill-opacity:1;stroke-width:13.6503"
       sodipodi:nodetypes="cccccccccccsscccccccccccsscccccccccssccsssssccssssccsssssccscc" />
    <path
       class="cls-1"
       d="m 250.37267,398.12074 c 0,0 -5.8833,0.32761 -5.8833,11.67105 0,11.34344 16.29851,14.03256 16.29851,5.46014 0,-8.57242 -5.26903,-17.13119 -10.41521,-17.13119 z"
       id="path50-6"
       style="fill:#f2f3f4;fill-opacity:1;stroke-width:13.6503" />
    <path
       class="cls-1"
       d="m 241.59549,410.3378 c 0,0 1.28314,6.74328 -8.19021,6.74328 -9.47334,0 -9.20033,-20.35268 -3.64464,-20.35268 5.55569,0 11.83485,11.00219 11.83485,13.6094 z"
       id="path52-1"
       style="fill:#f2f3f4;fill-opacity:1;stroke-width:13.6503" />
    <path
       class="cls-1"
       d="m 221.20187,412.90407 c 0,0 -10.38792,-7.28929 -10.81108,-13.06339 -0.42316,-5.77409 5.24174,-4.98237 9.74635,-4.98237 4.50462,0 3.42624,15.9163 1.06473,18.04576 z"
       id="path54-6"
       style="fill:#f2f3f4;fill-opacity:1;stroke-width:13.6503" />
    <path
       class="cls-1"
       d="m 207.44232,398.13439 c 0,0 -0.16381,6.82518 -6.82518,1.93835 -6.66137,-4.88682 -2.0339,-9.22764 1.36504,-9.22764 3.39893,0 5.46014,1.32409 5.46014,7.28929 z"
       id="path56-9"
       style="fill:#f2f3f4;fill-opacity:1;stroke-width:13.6503" />
    <path
       class="cls-1"
       d="m 265.85216,410.73366 c 0,0 -0.2457,6.34742 9.55525,6.34742 9.80095,0 9.06383,-6.72963 9.06383,-9.39144 a 9.0911331,9.0911331 0 0 0 -8.42226,-8.10831 c -5.30999,0 -8.10831,6.36106 -10.19682,11.15233 z"
       id="path58-5"
       style="fill:#f2f3f4;fill-opacity:1;stroke-width:13.6503" />
    <path
       class="cls-1"
       d="m 288.48445,409.10927 c 0,0 0.40951,6.94803 8.43591,5.13253 a 10.674574,10.674574 0 0 0 9.80095,-10.92028 c 0,-4.25891 -6.1017,-5.13253 -10.19681,-5.13253 -4.0951,0 -8.04005,5.14618 -8.04005,10.92028 z"
       id="path60-7"
       style="fill:#f2f3f4;fill-opacity:1;stroke-width:13.6503" />
    <path
       class="cls-1"
       d="m 310.25675,398.96706 c 0,0 0,4.76397 7.6169,2.17041 7.61689,-2.59357 4.25891,-7.73975 1.36503,-7.73975 -2.89387,0 -8.98193,2.32056 -8.98193,5.56934 z"
       id="path62-5"
       style="fill:#f2f3f4;fill-opacity:1;stroke-width:13.6503" />
  </g>
</svg>
